<svg width="61" height="61" viewBox="0 0 61 61" fill="none" xmlns="http://www.w3.org/2000/svg">
<path d="M32.5 20.9688C32.5 19.8642 31.6046 18.9688 30.5 18.9688C29.3954 18.9687 28.5 19.8642 28.5 20.9687L30.5 20.9688L32.5 20.9688ZM29.0858 41.4455C29.8668 42.2265 31.1332 42.2265 31.9142 41.4455L44.6421 28.7175C45.4232 27.9365 45.4232 26.6702 44.6421 25.8891C43.8611 25.1081 42.5948 25.1081 41.8137 25.8891L30.5 37.2028L19.1863 25.8891C18.4052 25.1081 17.1389 25.1081 16.3579 25.8891C15.5768 26.6702 15.5768 27.9365 16.3579 28.7175L29.0858 41.4455ZM30.5 20.9688L28.5 20.9687L28.5 40.0313L30.5 40.0313L32.5 40.0313L32.5 20.9688L30.5 20.9688Z" fill="#EF4B6E" fill-opacity="0.75"/>
<path d="M59 30.5C59 46.2401 46.2401 59 30.5 59C14.7599 59 2 46.2401 2 30.5C2 14.7599 14.7599 2 30.5 2C46.2401 2 59 14.7599 59 30.5Z" stroke="#EF4B6E" stroke-opacity="0.75" stroke-width="4"/>
</svg>
